# xmcd
#
# Track frame offsets: 
#        150
#        11111
#        23839
#        35856
#        47260
#        64874
#        78893
#        87673
#        96986
#        116455
#
# Disc length: 1715 seconds
#
# Revision: 0
# Processed by: cddbd v1.5.1PL0 Copyright (c) Steve Scherf et al.
# Submitted via: ExactAudioCopy v0.95a5
#
DISCID=7b06b10a
DTITLE=Daniel Weldon - Voice From the Blue
DYEAR=2002
DGENRE=Blues
TTITLE0=Voice From the Blue
TTITLE1=Second to a Dream
TTITLE2=Woke Up Alone
TTITLE3=Troubled Mind
TTITLE4=Sometimes
TTITLE5=Up for Days
TTITLE6=For the Love of That Girl
TTITLE7=Montauk
TTITLE8=Way Too Long
TTITLE9=The Sound
EXTD=
EXTT0=
EXTT1=
EXTT2=
EXTT3=
EXTT4=
EXTT5=
EXTT6=
EXTT7=
EXTT8=
EXTT9=
PLAYORDER=
